<svg width="410" height="410" viewBox="0 0 410 410" fill="none" xmlns="http://www.w3.org/2000/svg">
<path d="M409.6 409.6V259.584C409.6 185.856 393.728 129.536 307.712 129.536C266.24 129.536 238.592 152.064 227.328 173.568H226.304V136.192H144.896V409.6H229.888V273.92C229.888 238.08 236.544 203.776 280.576 203.776C324.096 203.776 324.608 244.224 324.608 275.968V409.088H409.6V409.6Z" fill="white"/>
<path d="M6.656 136.192H91.648V409.6H6.656V136.192Z" fill="white"/>
<path d="M49.152 0C22.016 0 0 22.016 0 49.152C0 76.288 22.016 98.816 49.152 98.816C76.288 98.816 98.304 76.288 98.304 49.152C98.304 22.016 76.288 0 49.152 0Z" fill="white"/>
</svg>
