<svg width="448" height="442" viewBox="0 0 448 442" fill="none" xmlns="http://www.w3.org/2000/svg">
<path d="M354.96 110.8L323.28 58.3203C318.369 50.0885 310.548 43.9999 301.363 41.2592C292.178 38.5185 282.299 39.3254 273.68 43.5203C272.56 44.0003 164.72 110.8 164.72 110.8H354.96Z" fill="white"/>
<path d="M134.4 110.8C134.4 110.8 263.359 30.5871 266.16 29.3603L247.52 10.9603C240.597 4.00035 231.203 0.0606428 221.386 0.00069424C211.569 -0.0592543 202.127 3.76542 195.12 10.6403L91.28 110.8H134.4Z" fill="white"/>
<path d="M426.56 233.76H323.6C310.636 233.76 298.203 238.91 289.037 248.077C279.87 257.244 274.72 269.677 274.72 282.64C274.72 295.604 279.87 308.037 289.037 317.204C298.203 326.37 310.636 331.52 323.6 331.52H426.56C432.246 331.52 437.699 329.261 441.72 325.24C445.741 321.22 448 315.766 448 310.08V255.28C448.003 249.586 445.747 244.123 441.728 240.089C437.709 236.054 432.254 233.779 426.56 233.76ZM345.12 276.8C347.214 276.842 349.208 277.703 350.674 279.199C352.14 280.695 352.962 282.706 352.962 284.8C352.962 286.895 352.14 288.906 350.674 290.401C349.208 291.897 347.214 292.758 345.12 292.8C343.026 292.758 341.032 291.897 339.566 290.401C338.1 288.906 337.278 286.895 337.278 284.8C337.278 282.706 338.1 280.695 339.566 279.199C341.032 277.703 343.026 276.842 345.12 276.8Z" fill="white"/>
<path d="M323.6 347.52C237.723 344.312 237.789 220.986 323.601 217.76H406.64V166.8C406.636 156.193 402.421 146.021 394.92 138.52C387.419 131.02 377.248 126.804 366.64 126.8H40C29.3925 126.804 19.2206 131.02 11.72 138.52C4.21934 146.021 0.00383783 156.193 0 166.8V401.52C0.00383783 412.128 4.21934 422.3 11.72 429.8C19.2206 437.301 29.3925 441.516 40 441.52H366.64C377.247 441.516 387.419 437.301 394.92 429.8C402.421 422.3 406.636 412.128 406.64 401.52V347.52C396.959 347.451 334.804 347.57 323.6 347.52Z" fill="white"/>
</svg>
