<svg width="480" height="337" viewBox="0 0 480 337" fill="none" xmlns="http://www.w3.org/2000/svg">
<path d="M470.109 52.5879C464.578 32.0244 448.365 15.8145 427.805 10.2773C390.243 0 239.994 0 239.994 0C239.994 0 89.751 0 52.1894 9.88769C32.0244 15.4189 15.416 32.0273 9.88477 52.5879C0 90.1465 0 168.038 0 168.038C0 168.038 0 246.322 9.88477 283.488C15.4219 304.049 31.6289 320.259 52.1924 325.796C90.1465 336.076 240 336.076 240 336.076C240 336.076 390.243 336.076 427.805 326.188C448.368 320.654 464.578 304.444 470.115 283.884C479.997 246.322 479.997 168.434 479.997 168.434C479.997 168.434 480.393 90.1465 470.109 52.5879ZM192.158 239.997V96.0791L317.098 168.038L192.158 239.997Z" fill="white"/>
</svg>
